<svg width="520" height="350" viewBox="0 0 520 350" fill="none" xmlns="http://www.w3.org/2000/svg">
<rect width="520" height="350" rx="8" fill="url(#paint0_linear_86_698)"/>
<rect x="352.207" y="80.6035" width="55" height="176" rx="5" fill="#AADAE2" fill-opacity="0.41"/>
<path d="M369.009 106.723C368.509 106.723 368.059 106.623 367.659 106.425C367.258 106.226 366.937 105.953 366.696 105.606C366.454 105.26 366.322 104.865 366.299 104.422H367.322C367.362 104.817 367.541 105.143 367.859 105.402C368.18 105.657 368.563 105.785 369.009 105.785C369.367 105.785 369.686 105.702 369.964 105.534C370.245 105.366 370.465 105.136 370.625 104.844C370.786 104.548 370.867 104.214 370.867 103.842C370.867 103.461 370.784 103.122 370.616 102.824C370.451 102.523 370.224 102.285 369.934 102.112C369.644 101.939 369.313 101.851 368.941 101.848C368.674 101.845 368.4 101.886 368.119 101.971C367.838 102.054 367.606 102.16 367.424 102.291L366.436 102.172L366.964 97.8762H371.498V98.8137H367.85L367.544 101.388H367.595C367.774 101.246 367.998 101.128 368.268 101.034C368.538 100.94 368.819 100.893 369.112 100.893C369.646 100.893 370.122 101.021 370.539 101.277C370.96 101.53 371.289 101.876 371.528 102.317C371.769 102.757 371.89 103.26 371.89 103.825C371.89 104.382 371.765 104.879 371.515 105.317C371.268 105.751 370.927 106.095 370.492 106.348C370.058 106.598 369.563 106.723 369.009 106.723ZM376.43 106.723C375.788 106.723 375.241 106.548 374.789 106.199C374.337 105.846 373.992 105.336 373.753 104.669C373.515 103.998 373.395 103.189 373.395 102.24C373.395 101.297 373.515 100.491 373.753 99.8237C373.995 99.1532 374.341 98.6419 374.793 98.2896C375.248 97.9345 375.793 97.7569 376.43 97.7569C377.066 97.7569 377.61 97.9345 378.062 98.2896C378.516 98.6419 378.863 99.1532 379.101 99.8237C379.343 100.491 379.464 101.297 379.464 102.24C379.464 103.189 379.344 103.998 379.106 104.669C378.867 105.336 378.522 105.846 378.07 106.199C377.618 106.548 377.072 106.723 376.43 106.723ZM376.43 105.785C377.066 105.785 377.56 105.479 377.913 104.865C378.265 104.251 378.441 103.376 378.441 102.24C378.441 101.484 378.36 100.841 378.198 100.309C378.039 99.7782 377.809 99.3734 377.508 99.095C377.209 98.8166 376.85 98.6774 376.43 98.6774C375.799 98.6774 375.306 98.9885 374.951 99.6106C374.596 100.23 374.418 101.106 374.418 102.24C374.418 102.996 374.498 103.638 374.657 104.166C374.816 104.694 375.045 105.096 375.343 105.372C375.644 105.648 376.006 105.785 376.43 105.785ZM383.93 106.723C383.288 106.723 382.741 106.548 382.289 106.199C381.837 105.846 381.492 105.336 381.253 104.669C381.015 103.998 380.895 103.189 380.895 102.24C380.895 101.297 381.015 100.491 381.253 99.8237C381.495 99.1532 381.841 98.6419 382.293 98.2896C382.748 97.9345 383.293 97.7569 383.93 97.7569C384.566 97.7569 385.11 97.9345 385.562 98.2896C386.016 98.6419 386.363 99.1532 386.601 99.8237C386.843 100.491 386.964 101.297 386.964 102.24C386.964 103.189 386.844 103.998 386.606 104.669C386.367 105.336 386.022 105.846 385.57 106.199C385.118 106.548 384.572 106.723 383.93 106.723ZM383.93 105.785C384.566 105.785 385.06 105.479 385.413 104.865C385.765 104.251 385.941 103.376 385.941 102.24C385.941 101.484 385.86 100.841 385.698 100.309C385.539 99.7782 385.309 99.3734 385.008 99.095C384.709 98.8166 384.35 98.6774 383.93 98.6774C383.299 98.6774 382.806 98.9885 382.451 99.6106C382.096 100.23 381.918 101.106 381.918 102.24C381.918 102.996 381.998 103.638 382.157 104.166C382.316 104.694 382.545 105.096 382.843 105.372C383.144 105.648 383.506 105.785 383.93 105.785ZM389.538 104.217L389.52 102.973H389.725L392.589 100.058H393.833L390.782 103.143H390.697L389.538 104.217ZM388.6 106.604V97.8762H389.606V106.604H388.6ZM392.759 106.604L390.202 103.365L390.918 102.666L394.038 106.604H392.759Z" fill="#615E83"/>
<path d="M366.317 139.604V138.836L369.198 135.683C369.536 135.314 369.815 134.993 370.033 134.72C370.252 134.444 370.414 134.186 370.519 133.944C370.627 133.7 370.681 133.444 370.681 133.177C370.681 132.871 370.607 132.605 370.459 132.381C370.315 132.156 370.116 131.983 369.863 131.861C369.61 131.738 369.326 131.677 369.011 131.677C368.675 131.677 368.383 131.747 368.133 131.886C367.886 132.023 367.694 132.214 367.557 132.461C367.424 132.709 367.357 132.998 367.357 133.331H366.351C366.351 132.819 366.469 132.371 366.705 131.984C366.941 131.598 367.262 131.297 367.668 131.081C368.077 130.865 368.536 130.757 369.045 130.757C369.556 130.757 370.009 130.865 370.404 131.081C370.799 131.297 371.109 131.588 371.333 131.954C371.557 132.321 371.67 132.729 371.67 133.177C371.67 133.498 371.611 133.812 371.495 134.119C371.381 134.423 371.182 134.763 370.898 135.138C370.617 135.51 370.226 135.964 369.726 136.501L367.766 138.598V138.666H371.823V139.604H366.317ZM376.43 139.723C375.788 139.723 375.241 139.548 374.789 139.199C374.337 138.846 373.992 138.336 373.753 137.669C373.515 136.998 373.395 136.189 373.395 135.24C373.395 134.297 373.515 133.491 373.753 132.824C373.995 132.153 374.341 131.642 374.793 131.29C375.248 130.934 375.793 130.757 376.43 130.757C377.066 130.757 377.61 130.934 378.062 131.29C378.516 131.642 378.863 132.153 379.101 132.824C379.343 133.491 379.464 134.297 379.464 135.24C379.464 136.189 379.344 136.998 379.106 137.669C378.867 138.336 378.522 138.846 378.07 139.199C377.618 139.548 377.072 139.723 376.43 139.723ZM376.43 138.785C377.066 138.785 377.56 138.479 377.913 137.865C378.265 137.251 378.441 136.376 378.441 135.24C378.441 134.484 378.36 133.841 378.198 133.309C378.039 132.778 377.809 132.373 377.508 132.095C377.209 131.817 376.85 131.677 376.43 131.677C375.799 131.677 375.306 131.988 374.951 132.611C374.596 133.23 374.418 134.106 374.418 135.24C374.418 135.996 374.498 136.638 374.657 137.166C374.816 137.694 375.045 138.096 375.343 138.372C375.644 138.648 376.006 138.785 376.43 138.785ZM383.93 139.723C383.288 139.723 382.741 139.548 382.289 139.199C381.837 138.846 381.492 138.336 381.253 137.669C381.015 136.998 380.895 136.189 380.895 135.24C380.895 134.297 381.015 133.491 381.253 132.824C381.495 132.153 381.841 131.642 382.293 131.29C382.748 130.934 383.293 130.757 383.93 130.757C384.566 130.757 385.11 130.934 385.562 131.29C386.016 131.642 386.363 132.153 386.601 132.824C386.843 133.491 386.964 134.297 386.964 135.24C386.964 136.189 386.844 136.998 386.606 137.669C386.367 138.336 386.022 138.846 385.57 139.199C385.118 139.548 384.572 139.723 383.93 139.723ZM383.93 138.785C384.566 138.785 385.06 138.479 385.413 137.865C385.765 137.251 385.941 136.376 385.941 135.24C385.941 134.484 385.86 133.841 385.698 133.309C385.539 132.778 385.309 132.373 385.008 132.095C384.709 131.817 384.35 131.677 383.93 131.677C383.299 131.677 382.806 131.988 382.451 132.611C382.096 133.23 381.918 134.106 381.918 135.24C381.918 135.996 381.998 136.638 382.157 137.166C382.316 137.694 382.545 138.096 382.843 138.372C383.144 138.648 383.506 138.785 383.93 138.785ZM389.538 137.217L389.52 135.973H389.725L392.589 133.058H393.833L390.782 136.143H390.697L389.538 137.217ZM388.6 139.604V130.876H389.606V139.604H388.6ZM392.759 139.604L390.202 136.365L390.918 135.666L394.038 139.604H392.759Z" fill="#615E83"/>
<path d="M371.073 163.876V172.604H370.016V164.984H369.965L367.834 166.399V165.325L370.016 163.876H371.073ZM376.43 172.723C375.788 172.723 375.241 172.548 374.789 172.199C374.337 171.846 373.992 171.336 373.753 170.669C373.515 169.998 373.395 169.189 373.395 168.24C373.395 167.297 373.515 166.491 373.753 165.824C373.995 165.153 374.341 164.642 374.793 164.29C375.248 163.934 375.793 163.757 376.43 163.757C377.066 163.757 377.61 163.934 378.062 164.29C378.516 164.642 378.863 165.153 379.101 165.824C379.343 166.491 379.464 167.297 379.464 168.24C379.464 169.189 379.344 169.998 379.106 170.669C378.867 171.336 378.522 171.846 378.07 172.199C377.618 172.548 377.072 172.723 376.43 172.723ZM376.43 171.785C377.066 171.785 377.56 171.479 377.913 170.865C378.265 170.251 378.441 169.376 378.441 168.24C378.441 167.484 378.36 166.841 378.198 166.309C378.039 165.778 377.809 165.373 377.508 165.095C377.209 164.817 376.85 164.677 376.43 164.677C375.799 164.677 375.306 164.988 374.951 165.611C374.596 166.23 374.418 167.106 374.418 168.24C374.418 168.996 374.498 169.638 374.657 170.166C374.816 170.694 375.045 171.096 375.343 171.372C375.644 171.648 376.006 171.785 376.43 171.785ZM383.93 172.723C383.288 172.723 382.741 172.548 382.289 172.199C381.837 171.846 381.492 171.336 381.253 170.669C381.015 169.998 380.895 169.189 380.895 168.24C380.895 167.297 381.015 166.491 381.253 165.824C381.495 165.153 381.841 164.642 382.293 164.29C382.748 163.934 383.293 163.757 383.93 163.757C384.566 163.757 385.11 163.934 385.562 164.29C386.016 164.642 386.363 165.153 386.601 165.824C386.843 166.491 386.964 167.297 386.964 168.24C386.964 169.189 386.844 169.998 386.606 170.669C386.367 171.336 386.022 171.846 385.57 172.199C385.118 172.548 384.572 172.723 383.93 172.723ZM383.93 171.785C384.566 171.785 385.06 171.479 385.413 170.865C385.765 170.251 385.941 169.376 385.941 168.24C385.941 167.484 385.86 166.841 385.698 166.309C385.539 165.778 385.309 165.373 385.008 165.095C384.709 164.817 384.35 164.677 383.93 164.677C383.299 164.677 382.806 164.988 382.451 165.611C382.096 166.23 381.918 167.106 381.918 168.24C381.918 168.996 381.998 169.638 382.157 170.166C382.316 170.694 382.545 171.096 382.843 171.372C383.144 171.648 383.506 171.785 383.93 171.785ZM389.538 170.217L389.52 168.973H389.725L392.589 166.058H393.833L390.782 169.143H390.697L389.538 170.217ZM388.6 172.604V163.876H389.606V172.604H388.6ZM392.759 172.604L390.202 169.365L390.918 168.666L394.038 172.604H392.759Z" fill="#615E83"/>
<path d="M376.509 205.723C376.009 205.723 375.559 205.623 375.159 205.425C374.758 205.226 374.437 204.953 374.196 204.606C373.954 204.26 373.822 203.865 373.799 203.422H374.822C374.862 203.817 375.041 204.143 375.359 204.402C375.68 204.657 376.063 204.785 376.509 204.785C376.867 204.785 377.186 204.702 377.464 204.534C377.745 204.366 377.965 204.136 378.125 203.844C378.286 203.548 378.367 203.214 378.367 202.842C378.367 202.461 378.284 202.122 378.116 201.824C377.951 201.523 377.724 201.285 377.434 201.112C377.144 200.939 376.813 200.851 376.441 200.848C376.174 200.845 375.9 200.886 375.619 200.971C375.338 201.054 375.106 201.16 374.924 201.291L373.936 201.172L374.464 196.876H378.998V197.814H375.35L375.044 200.388H375.095C375.274 200.246 375.498 200.128 375.768 200.034C376.038 199.94 376.319 199.893 376.612 199.893C377.146 199.893 377.622 200.021 378.039 200.277C378.46 200.53 378.789 200.876 379.028 201.317C379.269 201.757 379.39 202.26 379.39 202.825C379.39 203.382 379.265 203.879 379.015 204.317C378.768 204.751 378.427 205.095 377.992 205.348C377.558 205.598 377.063 205.723 376.509 205.723ZM383.93 205.723C383.288 205.723 382.741 205.548 382.289 205.199C381.837 204.846 381.492 204.336 381.253 203.669C381.015 202.998 380.895 202.189 380.895 201.24C380.895 200.297 381.015 199.491 381.253 198.824C381.495 198.153 381.841 197.642 382.293 197.29C382.748 196.934 383.293 196.757 383.93 196.757C384.566 196.757 385.11 196.934 385.562 197.29C386.016 197.642 386.363 198.153 386.601 198.824C386.843 199.491 386.964 200.297 386.964 201.24C386.964 202.189 386.844 202.998 386.606 203.669C386.367 204.336 386.022 204.846 385.57 205.199C385.118 205.548 384.572 205.723 383.93 205.723ZM383.93 204.785C384.566 204.785 385.06 204.479 385.413 203.865C385.765 203.251 385.941 202.376 385.941 201.24C385.941 200.484 385.86 199.841 385.698 199.309C385.539 198.778 385.309 198.373 385.008 198.095C384.709 197.817 384.35 197.677 383.93 197.677C383.299 197.677 382.806 197.988 382.451 198.611C382.096 199.23 381.918 200.106 381.918 201.24C381.918 201.996 381.998 202.638 382.157 203.166C382.316 203.694 382.545 204.096 382.843 204.372C383.144 204.648 383.506 204.785 383.93 204.785ZM389.538 203.217L389.52 201.973H389.725L392.589 199.058H393.833L390.782 202.143H390.697L389.538 203.217ZM388.6 205.604V196.876H389.606V205.604H388.6ZM392.759 205.604L390.202 202.365L390.918 201.666L394.038 205.604H392.759Z" fill="#615E83"/>
<path d="M390.457 238.723C389.815 238.723 389.268 238.548 388.816 238.199C388.365 237.846 388.019 237.336 387.781 236.669C387.542 235.998 387.423 235.189 387.423 234.24C387.423 233.297 387.542 232.491 387.781 231.824C388.022 231.153 388.369 230.642 388.821 230.29C389.275 229.934 389.821 229.757 390.457 229.757C391.093 229.757 391.637 229.934 392.089 230.29C392.544 230.642 392.89 231.153 393.129 231.824C393.37 232.491 393.491 233.297 393.491 234.24C393.491 235.189 393.372 235.998 393.133 236.669C392.894 237.336 392.549 237.846 392.098 238.199C391.646 238.548 391.099 238.723 390.457 238.723ZM390.457 237.785C391.093 237.785 391.588 237.479 391.94 236.865C392.292 236.251 392.468 235.376 392.468 234.24C392.468 233.484 392.387 232.841 392.225 232.309C392.066 231.778 391.836 231.373 391.535 231.095C391.237 230.817 390.877 230.677 390.457 230.677C389.826 230.677 389.333 230.988 388.978 231.611C388.623 232.23 388.446 233.106 388.446 234.24C388.446 234.996 388.525 235.638 388.684 236.166C388.843 236.694 389.072 237.096 389.37 237.372C389.671 237.648 390.034 237.785 390.457 237.785Z" fill="#615E83"/>
<rect x="349.707" y="78.1035" width="60" height="181" rx="7.5" stroke="white" stroke-opacity="0.52" stroke-width="5"/>
<path d="M175.638 258.124H176.945V263.237C176.943 263.706 176.843 264.11 176.647 264.448C176.45 264.785 176.176 265.044 175.823 265.226C175.473 265.406 175.064 265.496 174.598 265.496C174.172 265.496 173.788 265.42 173.447 265.269C173.109 265.115 172.84 264.887 172.641 264.587C172.442 264.286 172.343 263.912 172.343 263.465H173.653C173.656 263.661 173.698 263.83 173.781 263.972C173.866 264.115 173.984 264.223 174.133 264.299C174.282 264.375 174.453 264.413 174.648 264.413C174.858 264.413 175.037 264.369 175.184 264.281C175.331 264.191 175.442 264.059 175.518 263.884C175.596 263.709 175.636 263.493 175.638 263.237V258.124ZM179.908 265.396H178.502L181.063 258.124H182.689L185.253 265.396H183.847L181.904 259.615H181.847L179.908 265.396ZM179.955 262.545H183.79V263.603H179.955V262.545ZM192.787 258.124V265.396H191.616L188.189 260.443H188.128V265.396H186.811V258.124H187.99L191.413 263.081H191.477V258.124H192.787Z" fill="#615E83"/>
<path d="M218.733 265.396V258.124H223.392V259.228H220.051V261.203H223.073V262.307H220.051V265.396H218.733ZM225.193 265.396V258.124H229.923V259.228H226.51V261.203H229.678V262.307H226.51V264.292H229.951V265.396H225.193ZM231.867 265.396V258.124H234.651C235.176 258.124 235.613 258.207 235.961 258.372C236.312 258.536 236.573 258.759 236.746 259.044C236.921 259.328 237.009 259.65 237.009 260.009C237.009 260.305 236.952 260.559 236.838 260.769C236.725 260.978 236.572 261.147 236.38 261.277C236.189 261.407 235.974 261.501 235.738 261.558V261.629C235.996 261.643 236.243 261.722 236.48 261.867C236.719 262.009 236.914 262.21 237.066 262.47C237.217 262.731 237.293 263.046 237.293 263.415C237.293 263.791 237.202 264.13 237.019 264.431C236.837 264.729 236.563 264.964 236.196 265.137C235.829 265.31 235.367 265.396 234.811 265.396H231.867ZM233.184 264.296H234.601C235.079 264.296 235.424 264.204 235.635 264.022C235.848 263.838 235.954 263.601 235.954 263.312C235.954 263.097 235.901 262.902 235.794 262.73C235.688 262.554 235.536 262.417 235.34 262.318C235.143 262.216 234.909 262.165 234.637 262.165H233.184V264.296ZM233.184 261.217H234.488C234.715 261.217 234.92 261.175 235.102 261.093C235.284 261.007 235.427 260.888 235.532 260.734C235.638 260.578 235.691 260.393 235.691 260.18C235.691 259.898 235.592 259.666 235.393 259.484C235.197 259.302 234.904 259.21 234.516 259.21H233.184V261.217Z" fill="#615E83"/>
<path d="M262.004 258.124H263.616L265.775 263.394H265.86L268.019 258.124H269.632V265.396H268.367V260.4H268.3L266.29 265.375H265.345L263.335 260.389H263.268V265.396H262.004V258.124ZM272.6 265.396H271.194L273.754 258.124H275.381L277.945 265.396H276.538L274.596 259.615H274.539L272.6 265.396ZM272.646 262.545H276.482V263.603H272.646V262.545ZM279.503 265.396V258.124H282.23C282.788 258.124 283.257 258.221 283.636 258.415C284.017 258.609 284.305 258.881 284.499 259.232C284.695 259.58 284.794 259.986 284.794 260.45C284.794 260.916 284.694 261.321 284.495 261.664C284.299 262.005 284.009 262.269 283.625 262.456C283.242 262.641 282.771 262.733 282.212 262.733H280.27V261.639H282.034C282.361 261.639 282.629 261.594 282.837 261.504C283.045 261.412 283.199 261.278 283.299 261.103C283.4 260.926 283.451 260.708 283.451 260.45C283.451 260.192 283.4 259.972 283.299 259.789C283.197 259.605 283.042 259.465 282.833 259.37C282.625 259.273 282.356 259.225 282.027 259.225H280.82V265.396H279.503ZM283.26 262.101L285.06 265.396H283.59L281.821 262.101H283.26Z" fill="#615E83"/>
<path d="M309.598 265.396H308.192L310.752 258.124H312.379L314.942 265.396H313.536L311.594 259.615H311.537L309.598 265.396ZM309.644 262.545H313.479V263.603H309.644V262.545ZM316.5 265.396V258.124H319.228C319.786 258.124 320.255 258.228 320.634 258.436C321.015 258.645 321.303 258.931 321.497 259.296C321.693 259.658 321.792 260.07 321.792 260.531C321.792 260.998 321.693 261.412 321.497 261.774C321.3 262.137 321.01 262.422 320.627 262.63C320.243 262.836 319.771 262.939 319.21 262.939H317.402V261.856H319.032C319.359 261.856 319.627 261.799 319.835 261.686C320.043 261.572 320.197 261.416 320.297 261.217C320.398 261.018 320.449 260.789 320.449 260.531C320.449 260.273 320.398 260.046 320.297 259.85C320.197 259.653 320.042 259.5 319.831 259.392C319.623 259.28 319.354 259.225 319.025 259.225H317.818V265.396H316.5ZM323.536 265.396V258.124H326.263C326.822 258.124 327.291 258.221 327.669 258.415C328.051 258.609 328.338 258.881 328.532 259.232C328.729 259.58 328.827 259.986 328.827 260.45C328.827 260.916 328.728 261.321 328.529 261.664C328.332 262.005 328.042 262.269 327.659 262.456C327.275 262.641 326.804 262.733 326.245 262.733H324.303V261.639H326.068C326.395 261.639 326.662 261.594 326.87 261.504C327.079 261.412 327.233 261.278 327.332 261.103C327.434 260.926 327.485 260.708 327.485 260.45C327.485 260.192 327.434 259.972 327.332 259.789C327.23 259.605 327.075 259.465 326.867 259.37C326.659 259.273 326.39 259.225 326.061 259.225H324.853V265.396H323.536ZM327.293 262.101L329.093 265.396H327.623L325.855 262.101H327.293Z" fill="#615E83"/>
<path d="M138.025 244.723C137.383 244.723 136.836 244.548 136.385 244.199C135.933 243.846 135.588 243.336 135.349 242.669C135.11 241.998 134.991 241.189 134.991 240.24C134.991 239.297 135.11 238.491 135.349 237.824C135.59 237.153 135.937 236.642 136.389 236.29C136.843 235.934 137.389 235.757 138.025 235.757C138.662 235.757 139.206 235.934 139.657 236.29C140.112 236.642 140.458 237.153 140.697 237.824C140.938 238.491 141.059 239.297 141.059 240.24C141.059 241.189 140.94 241.998 140.701 242.669C140.463 243.336 140.117 243.846 139.666 244.199C139.214 244.548 138.667 244.723 138.025 244.723ZM138.025 243.785C138.662 243.785 139.156 243.479 139.508 242.865C139.86 242.251 140.037 241.376 140.037 240.24C140.037 239.484 139.956 238.841 139.794 238.309C139.635 237.778 139.404 237.373 139.103 237.095C138.805 236.817 138.446 236.677 138.025 236.677C137.394 236.677 136.902 236.988 136.546 237.611C136.191 238.23 136.014 239.106 136.014 240.24C136.014 240.996 136.093 241.638 136.252 242.166C136.412 242.694 136.64 243.096 136.938 243.372C137.24 243.648 137.602 243.785 138.025 243.785Z" fill="#615E83"/>
<path d="M123.951 211.723C123.451 211.723 123.001 211.623 122.601 211.425C122.2 211.226 121.879 210.953 121.638 210.606C121.396 210.26 121.264 209.865 121.241 209.422H122.264C122.304 209.817 122.483 210.143 122.801 210.402C123.122 210.657 123.505 210.785 123.951 210.785C124.309 210.785 124.628 210.702 124.906 210.534C125.187 210.366 125.407 210.136 125.567 209.844C125.728 209.548 125.809 209.214 125.809 208.842C125.809 208.461 125.726 208.122 125.558 207.824C125.393 207.523 125.166 207.285 124.876 207.112C124.586 206.939 124.255 206.851 123.883 206.848C123.616 206.845 123.342 206.886 123.061 206.971C122.78 207.054 122.548 207.16 122.366 207.291L121.378 207.172L121.906 202.876H126.44V203.814H122.792L122.486 206.388H122.537C122.716 206.246 122.94 206.128 123.21 206.034C123.48 205.94 123.761 205.893 124.054 205.893C124.588 205.893 125.064 206.021 125.481 206.277C125.902 206.53 126.231 206.876 126.47 207.317C126.711 207.757 126.832 208.26 126.832 208.825C126.832 209.382 126.707 209.879 126.457 210.317C126.21 210.751 125.869 211.095 125.434 211.348C125 211.598 124.505 211.723 123.951 211.723ZM131.372 211.723C130.73 211.723 130.183 211.548 129.731 211.199C129.279 210.846 128.934 210.336 128.695 209.669C128.457 208.998 128.337 208.189 128.337 207.24C128.337 206.297 128.457 205.491 128.695 204.824C128.937 204.153 129.284 203.642 129.735 203.29C130.19 202.934 130.735 202.757 131.372 202.757C132.008 202.757 132.552 202.934 133.004 203.29C133.458 203.642 133.805 204.153 134.043 204.824C134.285 205.491 134.406 206.297 134.406 207.24C134.406 208.189 134.286 208.998 134.048 209.669C133.809 210.336 133.464 210.846 133.012 211.199C132.561 211.548 132.014 211.723 131.372 211.723ZM131.372 210.785C132.008 210.785 132.502 210.479 132.855 209.865C133.207 209.251 133.383 208.376 133.383 207.24C133.383 206.484 133.302 205.841 133.14 205.309C132.981 204.778 132.751 204.373 132.45 204.095C132.151 203.817 131.792 203.677 131.372 203.677C130.741 203.677 130.248 203.988 129.893 204.611C129.538 205.23 129.36 206.106 129.36 207.24C129.36 207.996 129.44 208.638 129.599 209.166C129.758 209.694 129.987 210.096 130.285 210.372C130.586 210.648 130.948 210.785 131.372 210.785ZM136.98 209.217L136.962 207.973H137.167L140.031 205.058H141.275L138.224 208.143H138.139L136.98 209.217ZM136.042 211.604V202.876H137.048V211.604H136.042ZM140.201 211.604L137.644 208.365L138.36 207.666L141.48 211.604H140.201Z" fill="#615E83"/>
<path d="M118.83 169.876V178.604H117.774V170.984H117.723L115.592 172.399V171.325L117.774 169.876H118.83ZM124.187 178.723C123.545 178.723 122.998 178.548 122.546 178.199C122.095 177.846 121.75 177.336 121.511 176.669C121.272 175.998 121.153 175.189 121.153 174.24C121.153 173.297 121.272 172.491 121.511 171.824C121.752 171.153 122.099 170.642 122.551 170.29C123.005 169.934 123.551 169.757 124.187 169.757C124.823 169.757 125.367 169.934 125.819 170.29C126.274 170.642 126.62 171.153 126.859 171.824C127.1 172.491 127.221 173.297 127.221 174.24C127.221 175.189 127.102 175.998 126.863 176.669C126.625 177.336 126.279 177.846 125.828 178.199C125.376 178.548 124.829 178.723 124.187 178.723ZM124.187 177.785C124.823 177.785 125.318 177.479 125.67 176.865C126.022 176.251 126.198 175.376 126.198 174.24C126.198 173.484 126.117 172.841 125.955 172.309C125.796 171.778 125.566 171.373 125.265 171.095C124.967 170.817 124.607 170.677 124.187 170.677C123.556 170.677 123.063 170.988 122.708 171.611C122.353 172.23 122.176 173.106 122.176 174.24C122.176 174.996 122.255 175.638 122.414 176.166C122.573 176.694 122.802 177.096 123.1 177.372C123.402 177.648 123.764 177.785 124.187 177.785ZM131.687 178.723C131.045 178.723 130.498 178.548 130.046 178.199C129.595 177.846 129.25 177.336 129.011 176.669C128.772 175.998 128.653 175.189 128.653 174.24C128.653 173.297 128.772 172.491 129.011 171.824C129.252 171.153 129.599 170.642 130.051 170.29C130.505 169.934 131.051 169.757 131.687 169.757C132.323 169.757 132.867 169.934 133.319 170.29C133.774 170.642 134.12 171.153 134.359 171.824C134.6 172.491 134.721 173.297 134.721 174.24C134.721 175.189 134.602 175.998 134.363 176.669C134.125 177.336 133.779 177.846 133.328 178.199C132.876 178.548 132.329 178.723 131.687 178.723ZM131.687 177.785C132.323 177.785 132.818 177.479 133.17 176.865C133.522 176.251 133.698 175.376 133.698 174.24C133.698 173.484 133.617 172.841 133.455 172.309C133.296 171.778 133.066 171.373 132.765 171.095C132.467 170.817 132.107 170.677 131.687 170.677C131.056 170.677 130.563 170.988 130.208 171.611C129.853 172.23 129.676 173.106 129.676 174.24C129.676 174.996 129.755 175.638 129.914 176.166C130.073 176.694 130.302 177.096 130.6 177.372C130.902 177.648 131.264 177.785 131.687 177.785ZM137.295 176.217L137.278 174.973H137.482L140.346 172.058H141.59L138.539 175.143H138.454L137.295 176.217ZM136.357 178.604V169.876H137.363V178.604H136.357ZM140.517 178.604L137.96 175.365L138.676 174.666L141.795 178.604H140.517Z" fill="#615E83"/>
<path d="M113.904 145.604V144.836L116.784 141.683C117.122 141.314 117.401 140.993 117.619 140.72C117.838 140.444 118 140.186 118.105 139.944C118.213 139.7 118.267 139.444 118.267 139.177C118.267 138.871 118.193 138.605 118.046 138.381C117.901 138.156 117.702 137.983 117.449 137.861C117.196 137.738 116.912 137.677 116.597 137.677C116.261 137.677 115.969 137.747 115.719 137.886C115.472 138.023 115.28 138.214 115.144 138.461C115.01 138.709 114.943 138.998 114.943 139.331H113.938C113.938 138.819 114.056 138.371 114.291 137.984C114.527 137.598 114.848 137.297 115.254 137.081C115.663 136.865 116.122 136.757 116.631 136.757C117.142 136.757 117.595 136.865 117.99 137.081C118.385 137.297 118.695 137.588 118.919 137.954C119.144 138.321 119.256 138.729 119.256 139.177C119.256 139.498 119.198 139.812 119.081 140.119C118.967 140.423 118.769 140.763 118.484 141.138C118.203 141.51 117.813 141.964 117.313 142.501L115.352 144.598V144.666H119.409V145.604H113.904ZM124.016 145.723C123.374 145.723 122.827 145.548 122.375 145.199C121.923 144.846 121.578 144.336 121.34 143.669C121.101 142.998 120.982 142.189 120.982 141.24C120.982 140.297 121.101 139.491 121.34 138.824C121.581 138.153 121.928 137.642 122.379 137.29C122.834 136.934 123.379 136.757 124.016 136.757C124.652 136.757 125.196 136.934 125.648 137.29C126.102 137.642 126.449 138.153 126.688 138.824C126.929 139.491 127.05 140.297 127.05 141.24C127.05 142.189 126.931 142.998 126.692 143.669C126.453 144.336 126.108 144.846 125.656 145.199C125.205 145.548 124.658 145.723 124.016 145.723ZM124.016 144.785C124.652 144.785 125.146 144.479 125.499 143.865C125.851 143.251 126.027 142.376 126.027 141.24C126.027 140.484 125.946 139.841 125.784 139.309C125.625 138.778 125.395 138.373 125.094 138.095C124.796 137.817 124.436 137.677 124.016 137.677C123.385 137.677 122.892 137.988 122.537 138.611C122.182 139.23 122.004 140.106 122.004 141.24C122.004 141.996 122.084 142.638 122.243 143.166C122.402 143.694 122.631 144.096 122.929 144.372C123.23 144.648 123.592 144.785 124.016 144.785ZM131.516 145.723C130.874 145.723 130.327 145.548 129.875 145.199C129.423 144.846 129.078 144.336 128.84 143.669C128.601 142.998 128.482 142.189 128.482 141.24C128.482 140.297 128.601 139.491 128.84 138.824C129.081 138.153 129.428 137.642 129.879 137.29C130.334 136.934 130.879 136.757 131.516 136.757C132.152 136.757 132.696 136.934 133.148 137.29C133.602 137.642 133.949 138.153 134.188 138.824C134.429 139.491 134.55 140.297 134.55 141.24C134.55 142.189 134.431 142.998 134.192 143.669C133.953 144.336 133.608 144.846 133.156 145.199C132.705 145.548 132.158 145.723 131.516 145.723ZM131.516 144.785C132.152 144.785 132.646 144.479 132.999 143.865C133.351 143.251 133.527 142.376 133.527 141.24C133.527 140.484 133.446 139.841 133.284 139.309C133.125 138.778 132.895 138.373 132.594 138.095C132.296 137.817 131.936 137.677 131.516 137.677C130.885 137.677 130.392 137.988 130.037 138.611C129.682 139.23 129.504 140.106 129.504 141.24C129.504 141.996 129.584 142.638 129.743 143.166C129.902 143.694 130.131 144.096 130.429 144.372C130.73 144.648 131.092 144.785 131.516 144.785ZM137.124 143.217L137.107 141.973H137.311L140.175 139.058H141.419L138.368 142.143H138.283L137.124 143.217ZM136.186 145.604V136.876H137.192V145.604H136.186ZM140.345 145.604L137.788 142.365L138.504 141.666L141.624 145.604H140.345Z" fill="#615E83"/>
<path d="M116.596 112.723C116.096 112.723 115.645 112.623 115.245 112.425C114.844 112.226 114.523 111.953 114.282 111.606C114.04 111.26 113.908 110.865 113.885 110.422H114.908C114.948 110.817 115.127 111.143 115.445 111.402C115.766 111.657 116.15 111.785 116.596 111.785C116.954 111.785 117.272 111.702 117.55 111.534C117.831 111.366 118.052 111.136 118.211 110.844C118.373 110.548 118.454 110.214 118.454 109.842C118.454 109.461 118.37 109.122 118.202 108.824C118.037 108.523 117.81 108.285 117.52 108.112C117.231 107.939 116.9 107.851 116.527 107.848C116.26 107.845 115.986 107.886 115.705 107.971C115.424 108.054 115.192 108.16 115.01 108.291L114.022 108.172L114.55 103.876H119.084V104.814H115.437L115.13 107.388H115.181C115.36 107.246 115.584 107.128 115.854 107.034C116.124 106.94 116.405 106.893 116.698 106.893C117.232 106.893 117.708 107.021 118.125 107.277C118.546 107.53 118.875 107.876 119.114 108.317C119.356 108.757 119.476 109.26 119.476 109.825C119.476 110.382 119.351 110.879 119.101 111.317C118.854 111.751 118.513 112.095 118.079 112.348C117.644 112.598 117.15 112.723 116.596 112.723ZM124.016 112.723C123.374 112.723 122.827 112.548 122.375 112.199C121.923 111.846 121.578 111.336 121.34 110.669C121.101 109.998 120.982 109.189 120.982 108.24C120.982 107.297 121.101 106.491 121.34 105.824C121.581 105.153 121.928 104.642 122.379 104.29C122.834 103.934 123.379 103.757 124.016 103.757C124.652 103.757 125.196 103.934 125.648 104.29C126.102 104.642 126.449 105.153 126.688 105.824C126.929 106.491 127.05 107.297 127.05 108.24C127.05 109.189 126.931 109.998 126.692 110.669C126.453 111.336 126.108 111.846 125.656 112.199C125.205 112.548 124.658 112.723 124.016 112.723ZM124.016 111.785C124.652 111.785 125.146 111.479 125.499 110.865C125.851 110.251 126.027 109.376 126.027 108.24C126.027 107.484 125.946 106.841 125.784 106.309C125.625 105.778 125.395 105.373 125.094 105.095C124.796 104.817 124.436 104.677 124.016 104.677C123.385 104.677 122.892 104.988 122.537 105.611C122.182 106.23 122.004 107.106 122.004 108.24C122.004 108.996 122.084 109.638 122.243 110.166C122.402 110.694 122.631 111.096 122.929 111.372C123.23 111.648 123.592 111.785 124.016 111.785ZM131.516 112.723C130.874 112.723 130.327 112.548 129.875 112.199C129.423 111.846 129.078 111.336 128.84 110.669C128.601 109.998 128.482 109.189 128.482 108.24C128.482 107.297 128.601 106.491 128.84 105.824C129.081 105.153 129.428 104.642 129.879 104.29C130.334 103.934 130.879 103.757 131.516 103.757C132.152 103.757 132.696 103.934 133.148 104.29C133.602 104.642 133.949 105.153 134.188 105.824C134.429 106.491 134.55 107.297 134.55 108.24C134.55 109.189 134.431 109.998 134.192 110.669C133.953 111.336 133.608 111.846 133.156 112.199C132.705 112.548 132.158 112.723 131.516 112.723ZM131.516 111.785C132.152 111.785 132.646 111.479 132.999 110.865C133.351 110.251 133.527 109.376 133.527 108.24C133.527 107.484 133.446 106.841 133.284 106.309C133.125 105.778 132.895 105.373 132.594 105.095C132.296 104.817 131.936 104.677 131.516 104.677C130.885 104.677 130.392 104.988 130.037 105.611C129.682 106.23 129.504 107.106 129.504 108.24C129.504 108.996 129.584 109.638 129.743 110.166C129.902 110.694 130.131 111.096 130.429 111.372C130.73 111.648 131.092 111.785 131.516 111.785ZM137.124 110.217L137.107 108.973H137.311L140.175 106.058H141.419L138.368 109.143H138.283L137.124 110.217ZM136.186 112.604V103.876H137.192V112.604H136.186ZM140.345 112.604L137.788 109.365L138.504 108.666L141.624 112.604H140.345Z" fill="#615E83"/>
<line x1="151.207" y1="205.292" x2="301.878" y2="205.292" stroke="#E5E5EF" stroke-width="1.5" stroke-linecap="round" stroke-dasharray="4 7"/>
<line x1="151.207" y1="178.533" x2="301.878" y2="178.533" stroke="#E5E5EF" stroke-width="1.5" stroke-linecap="round" stroke-dasharray="4 7"/>
<line x1="151.207" y1="151.775" x2="301.878" y2="151.775" stroke="#E5E5EF" stroke-width="1.5" stroke-linecap="round" stroke-dasharray="4 7"/>
<line x1="151.208" y1="125.017" x2="301.879" y2="125.017" stroke="#E5E5EF" stroke-width="1.5" stroke-linecap="round" stroke-dasharray="4 7"/>
<line x1="334.032" y1="246.264" x2="150.457" y2="246.264" stroke="#9291A5"/>
<line x1="150.957" y1="88.7988" x2="150.957" y2="245.764" stroke="#9291A5"/>
<g opacity="0.87">
<rect x="160.139" y="224.639" width="31.4028" height="21.1242" fill="#962DFF"/>
<rect x="160.139" y="214.077" width="31.4028" height="10.5621" fill="#C893FD"/>
<rect x="160.139" y="205.548" width="31.4028" height="8.52911" fill="#E0C6FD"/>
<path d="M160.139 205.548C160.139 202.597 162.532 200.204 165.483 200.204H186.198C189.149 200.204 191.542 202.597 191.542 205.548H160.139Z" fill="#F0E5FC"/>
<rect x="207.636" y="210.306" width="31.4028" height="35.4574" fill="#962DFF"/>
<rect x="207.636" y="193.084" width="31.4028" height="17.2216" fill="#C893FD"/>
<rect x="207.636" y="173.56" width="31.4028" height="19.5246" fill="#E0C6FD"/>
<path d="M207.636 170.14C207.636 166.826 210.322 164.14 213.636 164.14H233.039C236.352 164.14 239.039 166.826 239.039 170.14V173.56H207.636V170.14Z" fill="#F0E5FC"/>
<rect x="255.132" y="199.995" width="31.4028" height="45.7687" fill="#962DFF"/>
<rect x="255.132" y="178.746" width="31.4028" height="21.2489" fill="#C893FD"/>
<rect x="255.132" y="154.829" width="31.4028" height="23.9171" fill="#E0C6FD"/>
<path d="M255.132 147.861C255.132 144.547 257.819 141.861 261.132 141.861H280.535C283.849 141.861 286.535 144.547 286.535 147.861V154.829H255.132V147.861Z" fill="#F0E5FC"/>
<rect x="302.629" y="192.551" width="31.4028" height="53.2125" fill="#962DFF"/>
<rect x="302.629" y="165.398" width="31.4028" height="27.1526" fill="#C893FD"/>
<rect x="302.629" y="135.578" width="31.4028" height="29.8208" fill="#E0C6FD"/>
<path d="M302.629 128.609C302.629 125.296 305.315 122.609 308.629 122.609H328.032C331.346 122.609 334.032 125.296 334.032 128.609V135.578H302.629V128.609Z" fill="#F0E5FC"/>
</g>
<defs>
<linearGradient id="paint0_linear_86_698" x1="520" y1="350" x2="-2.06324e-07" y2="3.06538e-07" gradientUnits="userSpaceOnUse">
<stop stop-color="#E3FFE7"/>
<stop offset="1" stop-color="#D9E7FF"/>
</linearGradient>
</defs>
</svg>
