<svg width="77" height="76" viewBox="0 0 77 76" fill="none" xmlns="http://www.w3.org/2000/svg">
<g filter="url(#filter0_d_166_192)">
<rect x="16.5" y="12" width="44" height="44" rx="8" fill="white" shape-rendering="crispEdges"/>
<path d="M47.5 39H33.5V25H47.5M47.5 23H33.5C32.9696 23 32.4609 23.2107 32.0858 23.5858C31.7107 23.9609 31.5 24.4696 31.5 25V39C31.5 39.5304 31.7107 40.0391 32.0858 40.4142C32.4609 40.7893 32.9696 41 33.5 41H47.5C48.0304 41 48.5391 40.7893 48.9142 40.4142C49.2893 40.0391 49.5 39.5304 49.5 39V25C49.5 24.4696 49.2893 23.9609 48.9142 23.5858C48.5391 23.2107 48.0304 23 47.5 23ZM29.5 27H27.5V43C27.5 43.5304 27.7107 44.0391 28.0858 44.4142C28.4609 44.7893 28.9696 45 29.5 45H45.5V43H29.5M42.46 32.29L39.71 35.83L37.75 33.47L35 37H46L42.46 32.29Z" fill="black"/>
</g>
<defs>
<filter id="filter0_d_166_192" x="0.5" y="0" width="76" height="76" filterUnits="userSpaceOnUse" color-interpolation-filters="sRGB">
<feFlood flood-opacity="0" result="BackgroundImageFix"/>
<feColorMatrix in="SourceAlpha" type="matrix" values="0 0 0 0 0 0 0 0 0 0 0 0 0 0 0 0 0 0 127 0" result="hardAlpha"/>
<feOffset dy="4"/>
<feGaussianBlur stdDeviation="8"/>
<feComposite in2="hardAlpha" operator="out"/>
<feColorMatrix type="matrix" values="0 0 0 0 0 0 0 0 0 0 0 0 0 0 0 0 0 0 0.12 0"/>
<feBlend mode="normal" in2="BackgroundImageFix" result="effect1_dropShadow_166_192"/>
<feBlend mode="normal" in="SourceGraphic" in2="effect1_dropShadow_166_192" result="shape"/>
</filter>
</defs>
</svg>
