<svg width="77" height="76" viewBox="0 0 77 76" fill="none" xmlns="http://www.w3.org/2000/svg">
<g filter="url(#filter0_d_166_188)">
<rect x="16.5" y="12" width="44" height="44" rx="8" fill="white" shape-rendering="crispEdges"/>
<path d="M44.5 37C45.2956 37 46.0587 37.3161 46.6213 37.8787C47.1839 38.4413 47.5 39.2044 47.5 40C47.5 40.7957 47.1839 41.5587 46.6213 42.1213C46.0587 42.6839 45.2956 43 44.5 43C43.19 43 42.08 42.17 41.67 41H40.5V39H41.67C42.08 37.83 43.19 37 44.5 37ZM44.5 39C44.2348 39 43.9804 39.1054 43.7929 39.2929C43.6054 39.4804 43.5 39.7348 43.5 40C43.5 40.2652 43.6054 40.5196 43.7929 40.7071C43.9804 40.8947 44.2348 41 44.5 41C44.7652 41 45.0196 40.8947 45.2071 40.7071C45.3946 40.5196 45.5 40.2652 45.5 40C45.5 39.7348 45.3946 39.4804 45.2071 39.2929C45.0196 39.1054 44.7652 39 44.5 39ZM44.5 30C44.8793 30 45.243 29.8493 45.5112 29.5812C45.7793 29.313 45.93 28.9493 45.93 28.57C45.93 27.78 45.29 27.14 44.5 27.14C43.71 27.14 43.07 27.78 43.07 28.57C43.07 28.9493 43.2207 29.313 43.4888 29.5812C43.757 29.8493 44.1207 30 44.5 30ZM44.5 24.57C45.5609 24.57 46.5783 24.9914 47.3284 25.7416C48.0786 26.4917 48.5 27.5091 48.5 28.57C48.5 31.56 44.5 36 44.5 36C44.5 36 40.5 31.56 40.5 28.57C40.5 27.5091 40.9214 26.4917 41.6716 25.7416C42.4217 24.9914 43.4391 24.57 44.5 24.57ZM35.33 39H36.5V41H35.33C34.92 42.17 33.81 43 32.5 43C31.7044 43 30.9413 42.6839 30.3787 42.1213C29.8161 41.5587 29.5 40.7957 29.5 40C29.5 38.69 30.33 37.58 31.5 37.17V36H33.5V37.17C34.35 37.47 35.03 38.15 35.33 39ZM32.5 39C32.2348 39 31.9804 39.1054 31.7929 39.2929C31.6054 39.4804 31.5 39.7348 31.5 40C31.5 40.2652 31.6054 40.5196 31.7929 40.7071C31.9804 40.8947 32.2348 41 32.5 41C32.7652 41 33.0196 40.8947 33.2071 40.7071C33.3946 40.5196 33.5 40.2652 33.5 40C33.5 39.7348 33.3946 39.4804 33.2071 39.2929C33.0196 39.1054 32.7652 39 32.5 39ZM32.5 25C33.2956 25 34.0587 25.3161 34.6213 25.8787C35.1839 26.4413 35.5 27.2044 35.5 28C35.5 29.31 34.67 30.42 33.5 30.83V32H31.5V30.83C30.33 30.42 29.5 29.31 29.5 28C29.5 27.2044 29.8161 26.4413 30.3787 25.8787C30.9413 25.3161 31.7044 25 32.5 25ZM32.5 27C32.2348 27 31.9804 27.1054 31.7929 27.2929C31.6054 27.4804 31.5 27.7348 31.5 28C31.5 28.2652 31.6054 28.5196 31.7929 28.7071C31.9804 28.8947 32.2348 29 32.5 29C32.7652 29 33.0196 28.8947 33.2071 28.7071C33.3946 28.5196 33.5 28.2652 33.5 28C33.5 27.7348 33.3946 27.4804 33.2071 27.2929C33.0196 27.1054 32.7652 27 32.5 27ZM37.5 41V39H39.5V41H37.5ZM33.5 35H31.5V33H33.5V35Z" fill="black"/>
</g>
<defs>
<filter id="filter0_d_166_188" x="0.5" y="0" width="76" height="76" filterUnits="userSpaceOnUse" color-interpolation-filters="sRGB">
<feFlood flood-opacity="0" result="BackgroundImageFix"/>
<feColorMatrix in="SourceAlpha" type="matrix" values="0 0 0 0 0 0 0 0 0 0 0 0 0 0 0 0 0 0 127 0" result="hardAlpha"/>
<feOffset dy="4"/>
<feGaussianBlur stdDeviation="8"/>
<feComposite in2="hardAlpha" operator="out"/>
<feColorMatrix type="matrix" values="0 0 0 0 0 0 0 0 0 0 0 0 0 0 0 0 0 0 0.12 0"/>
<feBlend mode="normal" in2="BackgroundImageFix" result="effect1_dropShadow_166_188"/>
<feBlend mode="normal" in="SourceGraphic" in2="effect1_dropShadow_166_188" result="shape"/>
</filter>
</defs>
</svg>
