<svg width="77" height="76" viewBox="0 0 77 76" fill="none" xmlns="http://www.w3.org/2000/svg">
<g filter="url(#filter0_d_166_196)">
<rect x="16.5" y="12" width="44" height="44" rx="8" fill="white" shape-rendering="crispEdges"/>
<path d="M38.5 24C37.1868 24 35.8864 24.2587 34.6732 24.7612C33.4599 25.2638 32.3575 26.0003 31.4289 26.9289C29.5536 28.8043 28.5 31.3478 28.5 34C28.5 36.6522 29.5536 39.1957 31.4289 41.0711C32.3575 41.9997 33.4599 42.7362 34.6732 43.2388C35.8864 43.7413 37.1868 44 38.5 44C41.1522 44 43.6957 42.9464 45.5711 41.0711C47.4464 39.1957 48.5 36.6522 48.5 34C48.5 32.6868 48.2413 31.3864 47.7388 30.1732C47.2362 28.9599 46.4997 27.8575 45.5711 26.9289C44.6425 26.0003 43.5401 25.2638 42.3268 24.7612C41.1136 24.2587 39.8132 24 38.5 24ZM38.5 26C40.6217 26 42.6566 26.8429 44.1569 28.3431C45.6571 29.8434 46.5 31.8783 46.5 34C46.5 36.4 45.5 38.5 43.8 40C42.4 38.7 40.5 38 38.5 38C36.5 38 34.7 38.7 33.2 40C31.5 38.5 30.5 36.4 30.5 34C30.5 31.8783 31.3429 29.8434 32.8431 28.3431C34.3434 26.8429 36.3783 26 38.5 26ZM40.5 27.89C40.12 27.9 39.76 28.15 39.6 28.54L38.31 31.77L38.21 32C37.5 32.13 36.91 32.6 36.64 33.26C36.23 34.29 36.73 35.45 37.76 35.86C38.79 36.27 39.95 35.77 40.36 34.74C40.62 34.08 40.5 33.32 40.07 32.76L40.17 32.5L41.46 29.29L41.47 29.26C41.67 28.75 41.42 28.17 40.91 27.96C40.78 27.91 40.65 27.89 40.5 27.89ZM36.5 28C36.2348 28 35.9804 28.1054 35.7929 28.2929C35.6054 28.4804 35.5 28.7348 35.5 29C35.5 29.2652 35.6054 29.5196 35.7929 29.7071C35.9804 29.8946 36.2348 30 36.5 30C36.7652 30 37.0196 29.8946 37.2071 29.7071C37.3946 29.5196 37.5 29.2652 37.5 29C37.5 28.7348 37.3946 28.4804 37.2071 28.2929C37.0196 28.1054 36.7652 28 36.5 28ZM33.5 31C33.2348 31 32.9804 31.1054 32.7929 31.2929C32.6054 31.4804 32.5 31.7348 32.5 32C32.5 32.2652 32.6054 32.5196 32.7929 32.7071C32.9804 32.8946 33.2348 33 33.5 33C33.7652 33 34.0196 32.8946 34.2071 32.7071C34.3946 32.5196 34.5 32.2652 34.5 32C34.5 31.7348 34.3946 31.4804 34.2071 31.2929C34.0196 31.1054 33.7652 31 33.5 31ZM43.5 31C43.2348 31 42.9804 31.1054 42.7929 31.2929C42.6054 31.4804 42.5 31.7348 42.5 32C42.5 32.2652 42.6054 32.5196 42.7929 32.7071C42.9804 32.8946 43.2348 33 43.5 33C43.7652 33 44.0196 32.8946 44.2071 32.7071C44.3946 32.5196 44.5 32.2652 44.5 32C44.5 31.7348 44.3946 31.4804 44.2071 31.2929C44.0196 31.1054 43.7652 31 43.5 31Z" fill="black"/>
</g>
<defs>
<filter id="filter0_d_166_196" x="0.5" y="0" width="76" height="76" filterUnits="userSpaceOnUse" color-interpolation-filters="sRGB">
<feFlood flood-opacity="0" result="BackgroundImageFix"/>
<feColorMatrix in="SourceAlpha" type="matrix" values="0 0 0 0 0 0 0 0 0 0 0 0 0 0 0 0 0 0 127 0" result="hardAlpha"/>
<feOffset dy="4"/>
<feGaussianBlur stdDeviation="8"/>
<feComposite in2="hardAlpha" operator="out"/>
<feColorMatrix type="matrix" values="0 0 0 0 0 0 0 0 0 0 0 0 0 0 0 0 0 0 0.12 0"/>
<feBlend mode="normal" in2="BackgroundImageFix" result="effect1_dropShadow_166_196"/>
<feBlend mode="normal" in="SourceGraphic" in2="effect1_dropShadow_166_196" result="shape"/>
</filter>
</defs>
</svg>
