<svg width="77" height="76" viewBox="0 0 77 76" fill="none" xmlns="http://www.w3.org/2000/svg">
<g filter="url(#filter0_d_166_182)">
<rect x="16.5" y="12" width="44" height="44" rx="8" fill="white" shape-rendering="crispEdges"/>
<path d="M44.5 33H41.32C40.9 31.84 39.8 31 38.5 31C37.2 31 36.1 31.84 35.68 33H32.5C32.17 33 30.5 32.9 30.5 31V30C30.5 28.17 32.04 28 32.5 28H42.68C43.1 29.16 44.2 30 45.5 30C46.2956 30 47.0587 29.6839 47.6213 29.1213C48.1839 28.5587 48.5 27.7956 48.5 27C48.5 26.2044 48.1839 25.4413 47.6213 24.8787C47.0587 24.3161 46.2956 24 45.5 24C44.2 24 43.1 24.84 42.68 26H32.5C30.89 26 28.5 27.06 28.5 30V31C28.5 33.94 30.89 35 32.5 35H35.68C36.1 36.16 37.2 37 38.5 37C39.8 37 40.9 36.16 41.32 35H44.5C44.83 35 46.5 35.1 46.5 37V38C46.5 39.83 44.96 40 44.5 40H34.32C33.9 38.84 32.8 38 31.5 38C30.7044 38 29.9413 38.3161 29.3787 38.8787C28.8161 39.4413 28.5 40.2044 28.5 41C28.5 41.7956 28.8161 42.5587 29.3787 43.1213C29.9413 43.6839 30.7044 44 31.5 44C32.8 44 33.9 43.16 34.32 42H44.5C46.11 42 48.5 40.93 48.5 38V37C48.5 34.07 46.11 33 44.5 33ZM45.5 26C45.7652 26 46.0196 26.1054 46.2071 26.2929C46.3946 26.4804 46.5 26.7348 46.5 27C46.5 27.2652 46.3946 27.5196 46.2071 27.7071C46.0196 27.8946 45.7652 28 45.5 28C45.2348 28 44.9804 27.8946 44.7929 27.7071C44.6054 27.5196 44.5 27.2652 44.5 27C44.5 26.7348 44.6054 26.4804 44.7929 26.2929C44.9804 26.1054 45.2348 26 45.5 26ZM31.5 42C31.2348 42 30.9804 41.8946 30.7929 41.7071C30.6054 41.5196 30.5 41.2652 30.5 41C30.5 40.7348 30.6054 40.4804 30.7929 40.2929C30.9804 40.1054 31.2348 40 31.5 40C31.7652 40 32.0196 40.1054 32.2071 40.2929C32.3946 40.4804 32.5 40.7348 32.5 41C32.5 41.2652 32.3946 41.5196 32.2071 41.7071C32.0196 41.8946 31.7652 42 31.5 42Z" fill="black"/>
</g>
<defs>
<filter id="filter0_d_166_182" x="0.5" y="0" width="76" height="76" filterUnits="userSpaceOnUse" color-interpolation-filters="sRGB">
<feFlood flood-opacity="0" result="BackgroundImageFix"/>
<feColorMatrix in="SourceAlpha" type="matrix" values="0 0 0 0 0 0 0 0 0 0 0 0 0 0 0 0 0 0 127 0" result="hardAlpha"/>
<feOffset dy="4"/>
<feGaussianBlur stdDeviation="8"/>
<feComposite in2="hardAlpha" operator="out"/>
<feColorMatrix type="matrix" values="0 0 0 0 0 0 0 0 0 0 0 0 0 0 0 0 0 0 0.12 0"/>
<feBlend mode="normal" in2="BackgroundImageFix" result="effect1_dropShadow_166_182"/>
<feBlend mode="normal" in="SourceGraphic" in2="effect1_dropShadow_166_182" result="shape"/>
</filter>
</defs>
</svg>
