<?xml version="1.0" encoding="UTF-8"?>
<!DOCTYPE svg PUBLIC "-//W3C//DTD SVG 1.1//EN" "http://www.w3.org/Graphics/SVG/1.1/DTD/svg11.dtd">
<!-- Creator: CorelDRAW X5 -->
<svg xmlns="http://www.w3.org/2000/svg" xml:space="preserve" width="171.821mm" height="54.2695mm" style="shape-rendering:geometricPrecision; text-rendering:geometricPrecision; image-rendering:optimizeQuality; fill-rule:evenodd; clip-rule:evenodd"
viewBox="0 0 48889 15441"
 xmlns:xlink="http://www.w3.org/1999/xlink">
 <defs>
  <style type="text/css">
   <![CDATA[
    .fil0 {fill:#616060;fill-rule:nonzero}
    .fil3 {fill:#62B6D2;fill-rule:nonzero}
    .fil1 {fill:url(#id0)}
    .fil2 {fill:url(#id1)}
   ]]>
  </style>
  <linearGradient id="id0" gradientUnits="userSpaceOnUse" x1="1813.12" y1="-0.0284532" x2="1813.12" y2="11815.1">
   <stop offset="0" style="stop-color:#A6B7DF"/>
   <stop offset="1" style="stop-color:#A1D6E7"/>
  </linearGradient>
  <linearGradient id="id1" gradientUnits="userSpaceOnUse" x1="3626.36" y1="13628.3" x2="9581.53" y2="13628.3">
   <stop offset="0" style="stop-color:#91C3D2"/>
   <stop offset="1" style="stop-color:#AADAE2"/>
  </linearGradient>
 </defs>
 <g id="Layer_x0020_1">
  <metadata id="CorelCorpID_0Corel-Layer"/>
  <g id="_396985328">
   <g>
    <path class="fil0" d="M8342 10001c-1529,0 -2441,-500 -2441,-1336l0 -3225 645 0 0 3225c0,413 722,691 1797,691 1075,0 1797,-278 1797,-691l0 -3225 645 0 0 3225c0,836 -913,1336 -2441,1336z"/>
    <polygon class="fil0" points="12626,9816 13271,9816 13271,5394 12626,5394 "/>
    <polygon class="fil0" points="18744,9816 18100,9816 18100,6206 15667,8992 13770,6670 13770,5651 15684,7993 17945,5403 18744,5403 "/>
    <polygon class="fil0" points="20622,9816 24428,9816 24428,9172 20622,9172 "/>
    <polygon class="fil0" points="24428,5988 24428,5343 20588,5343 20588,8388 21232,8388 21232,7758 24428,7758 24428,7114 21232,7114 21232,5988 "/>
    <polygon class="fil0" points="45082,9816 48889,9816 48889,9172 45082,9172 "/>
    <polygon class="fil0" points="48888,5988 48888,5343 45048,5343 45048,8388 45692,8388 45692,7758 48888,7758 48888,7114 45692,7114 45692,5988 "/>
    <polygon class="fil0" points="26271,9797 26916,9797 26916,5375 26271,5375 "/>
    <polygon class="fil0" points="31409,9816 30575,9816 27448,6630 27448,5709 30764,9089 30764,5375 31409,5375 "/>
    <path class="fil0" d="M35356 5700c-957,0 -1736,779 -1736,1735 0,957 779,1736 1736,1736 957,0 1736,-779 1736,-1736 0,-957 -779,-1735 -1736,-1735zm0 4116c-1313,0 -2381,-1067 -2381,-2381 0,-1313 1068,-2380 2381,-2380 1313,0 2381,1067 2381,2380 0,1313 -1068,2381 -2381,2381z"/>
    <path class="fil0" d="M39856 7625l0 -1568 2310 0c291,0 579,263 579,655 0,620 -347,935 -1031,936l-1857 -22zm3533 -913c0,-753 -568,-1300 -1224,-1300l-2955 0 0 4404 645 0 0 -1546 1681 20 1003 1526 772 0 -1045 -1591c705,-182 1123,-727 1123,-1514z"/>
    <polygon class="fil1" points="0,11815 3626,11815 3626,0 0,0 "/>
    <polygon class="fil2" points="3626,15441 9582,15441 9582,11815 3626,11815 "/>
    <polygon class="fil3" points="0,11815 3626,11815 3626,15441 "/>
   </g>
   <path class="fil0" d="M11463 14547l-305 -407c-38,3 -67,4 -89,4l-350 0 0 403 -202 0 0 -1325 552 0c183,0 328,41 433,123 105,82 158,195 158,339 0,102 -27,189 -81,261 -54,72 -131,124 -231,157l336 445 -220 0zm-401 -564c128,0 226,-26 293,-78 67,-52 101,-126 101,-222 0,-96 -34,-169 -101,-220 -67,-51 -165,-77 -293,-77l-344 0 0 596 344 0zm1952 399l0 165 -1028 0 0 -1325 999 0 0 165 -797 0 0 407 710 0 0 161 -710 0 0 428 825 0zm328 -1160l202 0 0 1160 767 0 0 165 -969 0 0 -1325zm1202 0l202 0 0 1325 -202 0 0 -1325zm1529 994l-753 0 -156 331 -208 0 641 -1325 200 0 643 1325 -212 0 -156 -331zm-71 -151l-306 -649 -305 649 611 0zm1602 -204c82,21 147,60 194,116 47,56 71,127 71,213 0,115 -46,203 -139,265 -92,62 -227,93 -404,93l-676 0 0 -1325 635 0c162,0 287,30 375,91 88,61 132,144 132,252 0,69 -17,129 -52,180 -34,50 -81,89 -139,115zm-751 -485l0 424 415 0c104,0 184,-18 240,-54 56,-36 84,-89 84,-158 0,-69 -28,-122 -84,-158 -56,-36 -136,-54 -240,-54l-415 0zm465 1019c115,0 201,-18 259,-53 58,-35 87,-91 87,-167 0,-148 -115,-221 -346,-221l-465 0 0 441 465 0zm864 -1172l202 0 0 1160 767 0 0 165 -969 0 0 -1325zm2229 1160l0 165 -1028 0 0 -1325 999 0 0 165 -797 0 0 407 710 0 0 161 -710 0 0 428 825 0zm872 -1160l202 0 0 1325 -202 0 0 -1325zm1845 0l0 1325 -166 0 -850 -988 0 988 -202 0 0 -1325 166 0 850 988 0 -988 202 0zm706 165l-486 0 0 -165 1171 0 0 165 -486 0 0 1160 -200 0 0 -1160zm1934 996l0 165 -1028 0 0 -1325 999 0 0 165 -797 0 0 407 710 0 0 161 -710 0 0 428 825 0zm328 -1160l202 0 0 1160 767 0 0 165 -969 0 0 -1325zm1202 0l202 0 0 1160 767 0 0 165 -969 0 0 -1325zm1202 0l202 0 0 1325 -202 0 0 -1325zm1608 655l194 0 0 517c-70,54 -152,96 -245,125 -93,29 -190,44 -291,44 -143,0 -272,-29 -386,-88 -115,-59 -205,-139 -270,-242 -65,-103 -98,-219 -98,-347 0,-129 33,-245 98,-348 65,-103 156,-184 271,-242 115,-58 245,-87 389,-87 113,0 216,17 309,52 92,35 171,85 236,152l-125 117c-113,-102 -250,-153 -411,-153 -108,0 -205,22 -290,65 -86,44 -153,104 -201,182 -49,78 -73,165 -73,262 0,96 24,183 73,260 48,78 116,139 201,183 86,44 182,66 288,66 127,0 237,-28 332,-85l0 -432zm1608 505l0 165 -1028 0 0 -1325 999 0 0 165 -797 0 0 407 710 0 0 161 -710 0 0 428 825 0zm1546 -1160l0 1325 -166 0 -850 -988 0 988 -202 0 0 -1325 166 0 850 988 0 -988 202 0zm1058 1340c-142,0 -269,-29 -383,-88 -114,-59 -203,-139 -268,-242 -65,-103 -97,-219 -97,-347 0,-129 32,-245 97,-347 65,-103 154,-184 269,-242 115,-59 243,-88 384,-88 111,0 212,17 303,52 92,35 170,86 235,154l-131 119c-107,-105 -239,-157 -399,-157 -105,0 -200,22 -285,66 -85,44 -151,105 -199,183 -48,78 -72,164 -72,260 0,96 24,183 72,260 48,78 114,139 199,183 85,44 180,66 285,66 158,0 291,-53 399,-159l131 119c-65,68 -143,120 -236,155 -92,35 -194,53 -305,53zm1857 -180l0 165 -1028 0 0 -1325 999 0 0 165 -797 0 0 407 710 0 0 161 -710 0 0 428 825 0zm872 -1160l597 0c150,0 283,28 398,83 116,56 206,133 270,234 64,100 96,216 96,346 0,130 -32,245 -96,345 -64,100 -154,178 -270,234 -116,56 -249,83 -398,83l-597 0 0 -1325zm585 1160c115,0 215,-21 302,-62 87,-42 154,-100 201,-175 47,-75 71,-162 71,-260 0,-98 -24,-185 -71,-260 -47,-75 -114,-133 -201,-175 -87,-42 -188,-63 -302,-63l-382 0 0 996 382 0zm2114 0l0 165 -1028 0 0 -1325 999 0 0 165 -797 0 0 407 710 0 0 161 -710 0 0 428 825 0zm328 -1160l202 0 0 1160 767 0 0 165 -969 0 0 -1325zm1202 0l202 0 0 1325 -202 0 0 -1325zm1857 0l-621 1325 -200 0 -623 -1325 218 0 510 1089 514 -1089 202 0zm1238 1160l0 165 -1028 0 0 -1325 999 0 0 165 -797 0 0 407 710 0 0 161 -710 0 0 428 825 0zm1275 165l-306 -407c-38,3 -67,4 -89,4l-350 0 0 403 -202 0 0 -1325 552 0c183,0 328,41 433,123 105,82 158,195 158,339 0,102 -27,189 -81,261 -54,72 -131,124 -231,157l336 445 -221 0zm-401 -564c128,0 226,-26 293,-78 67,-52 101,-126 101,-222 0,-96 -34,-169 -101,-220 -67,-51 -165,-77 -293,-77l-344 0 0 596 344 0zm1952 399l0 165 -1028 0 0 -1325 999 0 0 165 -797 0 0 407 710 0 0 161 -710 0 0 428 825 0zm328 -1160l597 0c150,0 283,28 398,83 116,56 206,133 270,234 64,100 96,216 96,346 0,130 -32,245 -96,345 -64,100 -154,178 -270,234 -116,56 -249,83 -398,83l-597 0 0 -1325zm585 1160c115,0 215,-21 302,-62 87,-42 154,-100 201,-175 47,-75 71,-162 71,-260 0,-98 -24,-185 -71,-260 -47,-75 -114,-133 -201,-175 -87,-42 -188,-63 -302,-63l-382 0 0 996 382 0z"/>
  </g>
 </g>
</svg>
