<svg width="77" height="76" viewBox="0 0 77 76" fill="none" xmlns="http://www.w3.org/2000/svg">
<g filter="url(#filter0_d_166_186)">
<rect x="16.5" y="12" width="44" height="44" rx="8" fill="white" shape-rendering="crispEdges"/>
<path d="M38.5 23L34.5 27H37.5V36H39.5V27H42.5M44.5 45H32.5C31.39 45 30.5 44.1 30.5 43V31C30.5 30.4696 30.7107 29.9609 31.0858 29.5858C31.4609 29.2107 31.9696 29 32.5 29H35.5V31H32.5V43H44.5V31H41.5V29H44.5C45.0304 29 45.5391 29.2107 45.9142 29.5858C46.2893 29.9609 46.5 30.4696 46.5 31V43C46.5 43.5304 46.2893 44.0391 45.9142 44.4142C45.5391 44.7893 45.0304 45 44.5 45Z" fill="black"/>
</g>
<defs>
<filter id="filter0_d_166_186" x="0.5" y="0" width="76" height="76" filterUnits="userSpaceOnUse" color-interpolation-filters="sRGB">
<feFlood flood-opacity="0" result="BackgroundImageFix"/>
<feColorMatrix in="SourceAlpha" type="matrix" values="0 0 0 0 0 0 0 0 0 0 0 0 0 0 0 0 0 0 127 0" result="hardAlpha"/>
<feOffset dy="4"/>
<feGaussianBlur stdDeviation="8"/>
<feComposite in2="hardAlpha" operator="out"/>
<feColorMatrix type="matrix" values="0 0 0 0 0 0 0 0 0 0 0 0 0 0 0 0 0 0 0.12 0"/>
<feBlend mode="normal" in2="BackgroundImageFix" result="effect1_dropShadow_166_186"/>
<feBlend mode="normal" in="SourceGraphic" in2="effect1_dropShadow_166_186" result="shape"/>
</filter>
</defs>
</svg>
